inDegrees=yes
name=ik_lifting_orientations
DataType=double
version=3
OpenSimVersion=4.5-2024-01-10-34fd6af
endheader
time	pelvis_tilt	pelvis_list	pelvis_rotation	pelvis_tx	pelvis_ty	pelvis_tz	hip_flexion_r	hip_adduction_r	hip_rotation_r	knee_angle_r	knee_angle_r_beta	ankle_angle_r	subtalar_angle_r	mtp_angle_r	hip_flexion_l	hip_adduction_l	hip_rotation_l	knee_angle_l	knee_angle_l_beta	ankle_angle_l	subtalar_angle_l	mtp_angle_l	lumbar_extension	lumbar_bending	lumbar_rotation	arm_flex_r	arm_add_r	arm_rot_r	elbow_flex_r	pro_sup_r	wrist_flex_r	wrist_dev_r	arm_flex_l	arm_add_l	arm_rot_l	elbow_flex_l	pro_sup_l	wrist_flex_l	wrist_dev_l
0.02	-0.01451468466349225	-0.005334952267357606	90.02327209655158	0	0.9399999998679526	0	44.28283845455434	-12.5892054431562	0	59.03874113264985	1.030420418997346	-6.374033506445431	0	0	44.28283845455434	-12.5892054431562	0	59.03874113264985	1.030420418997346	-6.374033506445431	0	0	-0.003919632448466416	-0.01761826574610315	-0.03565004144476722	-0.2223030105078671	-0.04905102715687575	0.007895837364649256	0.4910062333116647	4.698504936962041	0	0	0	-8.915601896680757	0	85.38522952291076	4.698504936962041	0	0
0.03	-0.002789863043644826	-0.02085385167935051	89.99723854329774	0	0.9399999998679526	0	44.30114802245069	-12.38890189881742	0	59.05819891832218	1.030760021422476	-6.243100714619406	0	0	44.30114802245069	-12.38890189881742	0	59.05819891832218	1.030760021422476	-6.243100714619406	0	0	0.04717135459300525	0.007089157488378423	0.05679523504867365	-0.5086331979239122	-0.12858364698683	-0.0624569373542822	0.9922982220777251	4.613314305947425	0	0	0	-8.997714139675203	0	85.46889204459693	4.613314305947425	0	0
0.04	0.005610765235753477	0.01181685178994458	89.99705429340771	0	0.9399999998679526	0	44.32778028400377	-12.12230992033437	0	59.08682702607719	1.031259676161416	-6.074398848183948	0	0	44.32778028400377	-12.12230992033437	0	59.08682702607719	1.031259676161416	-6.074398848183948	0	0	-0.01477154624335062	0.008018445650998721	0.06534683925816384	-0.4753347955436609	-0.1157125156685742	-0.08300340964369751	0.9790079267069313	4.487998625050498	0	0	0	-9.119330189168723	0	85.59196069478831	4.487998625050498	0	0
0.05	0.00114297881903611	-0.009710004929626972	89.99286109483991	0	0.9399999998679526	0	44.34308124445754	-11.97141627836887	0	59.10326319350433	1.031546541399429	-5.979316761724616	0	0	44.34308124445754	-11.97141627836887	0	59.10326319350433	1.031546541399429	-5.979316761724616	0	0	0.01321120745672874	0.0006715941296138673	0.001595499517443519	-0.243293420093902	-0.05685293367782124	0.003809242571808352	0.5025120738902257	4.415782522075345	0	0	0	-9.189565877780044	0	85.66288198711133	4.415782522075345	0	0
0.06	-0.0008819202600135845	0.0008712205023806594	90.00235291393994	0	0.9399999998679526	0	44.35787610782463	-11.83360933405578	0	59.11923351632878	1.031825276115322	-5.894240196006489	0	0	44.35787610782463	-11.83360933405578	0	59.11923351632878	1.031825276115322	-5.894240196006489	0	0	-0.002097613231267614	0.001015966904185701	-0.1221156074386231	-0.239419764839493	-0.05871891605348335	0.1123796607007549	0.5048554942915274	4.345418858462111	0	0	0	-9.25832705195522	0	85.73198435633284	4.345418858462111	0	0
0.07000000000000001	0.0005049099966613116	-0.002062525798556052	89.99729829601777	0	0.9399999998679526	0	44.38513194478531	-11.59528005924209	0	59.14883203794219	1.032341867771199	-5.750568893355878	0	0	44.38513194478531	-11.59528005924209	0	59.14883203794219	1.032341867771199	-5.750568893355878	0	0	0.07779487370824892	-0.0007662372800340157	-0.05685859312331951	-0.3705787904388288	-0.06253074493562683	0.05397177840868312	0.6159257189898104	4.214714040310909	0	0	0	-9.386716114735792	0	85.8603468009497	4.214714040310909	0	0
0.08	-9.873408902717367e-05	0.0003235658867062141	89.99845512776116	0	0.9399999998679526	0	44.41352780664608	-11.38788586485598	0	59.18020683845629	1.032889461342326	-5.633600455084057	0	0	44.41352780664608	-11.38788586485598	0	59.18020683845629	1.032889461342326	-5.633600455084057	0	0	-0.001145709947996556	0.0007235066427021256	-0.05747752839897285	-0.2340292291245614	-0.05525649575540462	0.05344134872006107	0.4905332838883114	4.075254930538232	0	0	0	-9.525755893849341	0	85.99730832163394	4.075254930538232	0	0
0.09	-0.001941286090633856	0.007570321936446536	89.99968925205292	0	0.9399999998679526	0	44.42644016577467	-11.29256114202364	0	59.19447219690147	1.033138438816172	-5.57937834171763	0	0	44.42644016577467	-11.29256114202364	0	59.19447219690147	1.033138438816172	-5.57937834171763	0	0	0.02334976940257807	-0.001331106536672499	-0.1811294183437671	-0.2660325798532283	-0.0566248170429246	0.176188078993365	0.4919747200816632	4.011839043372097	0	0	0	-9.588991097238324	0	86.05958846242531	4.011839043372097	0	0
0.1	-0.001537682713603122	0.005069915693309849	90.00014418303837	0	0.9399999998679526	0	44.43903373632057	-11.20406732841996	0	59.20845153495907	1.033382424292526	-5.529959114060527	0	0	44.43903373632057	-11.20406732841996	0	59.20845153495907	1.033382424292526	-5.529959114060527	0	0	0.06075986432718698	0.0005310727308849369	-0.3011600850443968	-0.3000931130376103	-0.058675650434175	0.2953707983609722	0.4913553019480206	3.94958083349547	0	0	0	-9.651326600273274	0	86.12073184238007	3.94958083349547	0	0
0.11	0.008584386435897918	-0.01697120940427951	90.00354884869425	0	0.9399999998679526	0	44.44973485012093	-11.13588139658257	0	59.22045874070018	1.033591989566673	-5.493138196263269	0	0	44.44973485012093	-11.13588139658257	0	59.22045874070018	1.033591989566673	-5.493138196263269	0	0	0.1608586765115547	0.01090664200689108	-0.301873592542758	-0.6132497378387974	-0.1086755438877067	0.2878381850919595	0.9740163214879566	3.895929104092853	0	0	0	-9.705528204214612	0	86.17342319043388	3.895929104092853	0	0
0.12	-0.0007737203448797825	-0.0007722070020323733	90.00100280561519	0	0.9399999998679526	0	44.46300421596894	-11.05129905189682	0	59.23533827069262	1.03385168635619	-5.4475566451709	0	0	44.46300421596894	-11.05129905189682	0	59.23533827069262	1.03385168635619	-5.4475566451709	0	0	0.1604794472882453	0.001528372652214296	-0.2999848381038704	-0.3997545311147989	-0.06125123937580643	0.2921481562587028	0.5036697954838176	3.829452610271297	0	0	0	-9.772643376522527	0	86.23870969658242	3.829452610271297	0	0
0.13	-0.005011206780747682	0.008007009814124937	89.9988894322528	0	0.9399999998679526	0	44.48344090915661	-10.93752408777629	0	59.25854480485875	1.034256716785366	-5.389171510404086	0	0	44.48344090915661	-10.93752408777629	0	59.25854480485875	1.034256716785366	-5.389171510404086	0	0	0.1720483465303854	-0.004510434301010197	-0.3005286027853059	-0.4222409794583918	-0.0594773696850723	0.295056841042354	0.5083907111157889	3.725156935221972	0	0	0	-9.87916468650454	0	86.34113919489033	3.725156935221972	0	0
0.14	0.0004035819956567999	-3.123324949207035e-05	89.99966735249996	0	0.9399999998679526	0	44.50882856004132	-10.81180053657497	0	59.28771410863044	1.034765817176696	-5.327309064061098	0	0	44.50882856004132	-10.81180053657497	0	59.28771410863044	1.034765817176696	-5.327309064061098	0	0	0.1893200943861097	0.002176622736608025	-0.2999893387788684	-0.423896068163358	-0.05893341853245606	0.2955828291601508	0.4913507499459672	3.593477697882039	0	0	0	-10.01502233407144	0	86.47046305376158	3.593477697882039	0	0
0.15	0.002432747983278483	-0.02049060519439597	89.9918320871498	0	0.9399999998679526	0	44.52120073993214	-10.74979071902309	0	59.30193542154154	1.035014025910951	-5.296453968353259	0	0	44.52120073993214	-10.74979071902309	0	59.30193542154154	1.035014025910951	-5.296453968353259	0	0	0.2360442242843178	0.0139945570474616	-0.2364168934540539	-0.697285395681709	-0.1331864159947713	0.2364213673779129	0.9919767093947125	3.529276170294434	0	0	0	-10.08129669730448	0	86.53351618333379	3.529276170294434	0	0
0.16	-0.0007591840518047413	-0.00287427159268973	89.99935060881893	0	0.9399999998679526	0	44.53239525766772	-10.6956423451186	0	59.31484815687762	1.035239395658005	-5.26986676103474	0	0	44.53239525766772	-10.6956423451186	0	59.31484815687762	1.035239395658005	-5.26986676103474	0	0	0.254110829863729	-0.001211152203955504	-0.179502698914883	-0.4910883218892332	-0.05733764801797439	0.1738731317985523	0.5040438797277367	3.470909177016172	0	0	0	-10.14172525119223	0	86.59083922955988	3.470909177016172	0	0
